<svg id="Calque_1" data-name="Calque 1" xmlns="http://www.w3.org/2000/svg" xmlns:xlink="http://www.w3.org/1999/xlink" viewBox="0 0 239.84 96"><defs><style>.cls-1,.cls-13,.cls-5{fill:none;}.cls-2{fill:#b059a2;}.cls-3{fill:#b464a8;}.cls-4{fill:#b970ae;}.cls-13,.cls-5{stroke:#fff;}.cls-5{stroke-width:4px;}.cls-10,.cls-6,.cls-7{isolation:isolate;}.cls-6{font-size:36px;fill:#b25996;}.cls-6,.cls-7{font-family:SourceSansPro-Semibold, Source Sans Pro;font-weight:600;}.cls-10,.cls-7{font-size:13px;fill:#414042;}.cls-8{letter-spacing:-0.01em;}.cls-9{letter-spacing:-0.02em;}.cls-10{font-family:SourceSansPro-Light, Source Sans Pro;font-weight:300;}.cls-11{letter-spacing:-0.01em;}.cls-12{clip-path:url(#clip-path);}.cls-13{stroke-linecap:round;stroke-linejoin:round;stroke-width:3px;}</style><clipPath id="clip-path"><rect class="cls-1" x="14.2" y="24.6" width="51" height="51"/></clipPath></defs><polygon class="cls-2" points="0 27.2 0 73 39.7 96 79.4 73 79.4 27.2 39.7 4.3 0 27.2"/><polygon class="cls-3" points="39.7 50.2 79.4 27.2 39.7 4.3 0 27.2 39.7 50.2"/><polygon class="cls-4" points="79.4 73 79.4 27.2 39.7 50.1 39.7 95.9 79.4 73"/><polygon class="cls-5" points="0 27.2 0 73 39.7 96 79.4 73 79.4 27.2 39.7 4.3 0 27.2"/><text class="cls-6" transform="translate(87.88 34.61)">MMI</text><text class="cls-7" transform="translate(89.85 48.62)">DUT Mé</text><text class="cls-7" transform="translate(132.33 48.62)">tie<tspan class="cls-8" x="14.69" y="0">r</tspan><tspan x="19.46" y="0">s du Multimédia</tspan></text><text class="cls-7" transform="translate(89.85 62.62)">&amp; d’In<tspan class="cls-9" x="32.76" y="0">t</tspan><tspan x="37.24" y="0">erne</tspan></text><text class="cls-7" transform="translate(152.35 62.62)">t</text><text class="cls-10" transform="translate(89.85 76.61)">IUT Bel<tspan class="cls-11" x="37.65" y="0">f</tspan><tspan x="40.94" y="0">ort</tspan></text><text class="cls-10" transform="translate(145.65 76.61)">-Montbéliar</text><text class="cls-10" transform="translate(206.53 76.61)">d</text><g class="cls-12"><polygon class="cls-13" points="39.7 27.5 28.3 72.8 17 47.3 31.2 58.6 22.7 33.1 39.7 53 56.7 33.1 48 58.7 62.4 47.3 51 72.8 39.7 27.5"/></g></svg>